<svg xmlns="http://www.w3.org/2000/svg" width="1280" height="880" viewBox="0 0 1280 880" role="img" aria-labelledby="title desc">
  <title id="title">Qwen3 Throughput vs Experiment Number</title>
  <desc id="desc">Scatter plot of TorchTitan tokens per second across Qwen3 autoresearch experiments, with dots colored by inferred experiment category and a dotted best-so-far line.</desc>
  <rect width="1280" height="880" fill="#ffffff"/>
  <text x="82" y="34" font-family="Arial, sans-serif" font-size="25" font-weight="700" fill="#111827">Qwen3 14B Throughput vs Experiment #</text>
  <text x="82" y="58" font-family="Arial, sans-serif" font-size="14" fill="#4b5563">Dots are individual runs colored by inferred category; dotted blue line is best-so-far screen excluding diagnostic profile rows.</text>
  <line x1="82" y1="650.0" x2="1160" y2="650.0" stroke="#e5e7eb" stroke-width="1"/>
  <text x="32" y="654.0" font-family="Arial, sans-serif" font-size="12" fill="#4b5563">0</text>
  <line x1="82" y1="557.0" x2="1160" y2="557.0" stroke="#e5e7eb" stroke-width="1"/>
  <text x="32" y="561.0" font-family="Arial, sans-serif" font-size="12" fill="#4b5563">2500</text>
  <line x1="82" y1="464.0" x2="1160" y2="464.0" stroke="#e5e7eb" stroke-width="1"/>
  <text x="32" y="468.0" font-family="Arial, sans-serif" font-size="12" fill="#4b5563">5000</text>
  <line x1="82" y1="371.0" x2="1160" y2="371.0" stroke="#e5e7eb" stroke-width="1"/>
  <text x="32" y="375.0" font-family="Arial, sans-serif" font-size="12" fill="#4b5563">7500</text>
  <line x1="82" y1="278.0" x2="1160" y2="278.0" stroke="#e5e7eb" stroke-width="1"/>
  <text x="32" y="282.0" font-family="Arial, sans-serif" font-size="12" fill="#4b5563">10000</text>
  <line x1="82" y1="185.0" x2="1160" y2="185.0" stroke="#e5e7eb" stroke-width="1"/>
  <text x="32" y="189.0" font-family="Arial, sans-serif" font-size="12" fill="#4b5563">12500</text>
  <line x1="82" y1="92.0" x2="1160" y2="92.0" stroke="#e5e7eb" stroke-width="1"/>
  <text x="32" y="96.0" font-family="Arial, sans-serif" font-size="12" fill="#4b5563">15000</text>
  <line x1="82.0" y1="92" x2="82.0" y2="650" stroke="#f3f4f6" stroke-width="1"/>
  <line x1="82.0" y1="650" x2="82.0" y2="657" stroke="#111827" stroke-width="1"/>
  <text x="72.0" y="676" font-family="Arial, sans-serif" font-size="12" fill="#4b5563">1</text>
  <line x1="244.9" y1="92" x2="244.9" y2="650" stroke="#f3f4f6" stroke-width="1"/>
  <line x1="244.9" y1="650" x2="244.9" y2="657" stroke="#111827" stroke-width="1"/>
  <text x="234.9" y="676" font-family="Arial, sans-serif" font-size="12" fill="#4b5563">100</text>
  <line x1="409.5" y1="92" x2="409.5" y2="650" stroke="#f3f4f6" stroke-width="1"/>
  <line x1="409.5" y1="650" x2="409.5" y2="657" stroke="#111827" stroke-width="1"/>
  <text x="399.5" y="676" font-family="Arial, sans-serif" font-size="12" fill="#4b5563">200</text>
  <line x1="574.1" y1="92" x2="574.1" y2="650" stroke="#f3f4f6" stroke-width="1"/>
  <line x1="574.1" y1="650" x2="574.1" y2="657" stroke="#111827" stroke-width="1"/>
  <text x="564.1" y="676" font-family="Arial, sans-serif" font-size="12" fill="#4b5563">300</text>
  <line x1="738.7" y1="92" x2="738.7" y2="650" stroke="#f3f4f6" stroke-width="1"/>
  <line x1="738.7" y1="650" x2="738.7" y2="657" stroke="#111827" stroke-width="1"/>
  <text x="728.7" y="676" font-family="Arial, sans-serif" font-size="12" fill="#4b5563">400</text>
  <line x1="903.3" y1="92" x2="903.3" y2="650" stroke="#f3f4f6" stroke-width="1"/>
  <line x1="903.3" y1="650" x2="903.3" y2="657" stroke="#111827" stroke-width="1"/>
  <text x="893.3" y="676" font-family="Arial, sans-serif" font-size="12" fill="#4b5563">500</text>
  <line x1="1067.8" y1="92" x2="1067.8" y2="650" stroke="#f3f4f6" stroke-width="1"/>
  <line x1="1067.8" y1="650" x2="1067.8" y2="657" stroke="#111827" stroke-width="1"/>
  <text x="1057.8" y="676" font-family="Arial, sans-serif" font-size="12" fill="#4b5563">600</text>
  <line x1="1160.0" y1="92" x2="1160.0" y2="650" stroke="#f3f4f6" stroke-width="1"/>
  <line x1="1160.0" y1="650" x2="1160.0" y2="657" stroke="#111827" stroke-width="1"/>
  <text x="1150.0" y="676" font-family="Arial, sans-serif" font-size="12" fill="#4b5563">656</text>
  <line x1="82" y1="650" x2="1160" y2="650" stroke="#111827" stroke-width="1.5"/>
  <line x1="82" y1="92" x2="82" y2="650" stroke="#111827" stroke-width="1.5"/>
  <text x="551.0" y="738" font-family="Arial, sans-serif" font-size="14" fill="#111827">Experiment # / results.tsv row</text>
  <text x="18" y="410" transform="rotate(-90 18 410)" font-family="Arial, sans-serif" font-size="14" fill="#111827">Tokens/sec</text>
  <g fill="#374151" fill-opacity="0.72" stroke="#ffffff" stroke-width="0.45">
    <circle cx="83.6" cy="380.2" r="2.65"/>
    <circle cx="401.3" cy="396.7" r="2.65"/>
    <circle cx="416.1" cy="544.9" r="2.65"/>
    <circle cx="493.5" cy="270.7" r="2.65"/>
    <circle cx="498.4" cy="259.2" r="2.65"/>
    <circle cx="500.0" cy="261.5" r="2.65"/>
    <circle cx="608.7" cy="267.3" r="2.65"/>
    <circle cx="832.5" cy="192.8" r="2.65"/>
    <circle cx="888.4" cy="187.2" r="2.65"/>
  </g>
  <g fill="#a16207" fill-opacity="0.72" stroke="#ffffff" stroke-width="0.45">
    <circle cx="85.3" cy="443.0" r="2.65"/>
    <circle cx="86.9" cy="381.3" r="2.65"/>
    <circle cx="93.5" cy="442.3" r="2.65"/>
    <circle cx="96.8" cy="346.2" r="2.65"/>
    <circle cx="111.6" cy="363.5" r="2.65"/>
    <circle cx="114.9" cy="373.5" r="2.65"/>
    <circle cx="116.6" cy="340.8" r="2.65"/>
    <circle cx="121.5" cy="340.1" r="2.65"/>
    <circle cx="123.1" cy="340.2" r="2.65"/>
    <circle cx="167.6" cy="358.4" r="2.65"/>
    <circle cx="340.4" cy="285.4" r="2.65"/>
    <circle cx="477.0" cy="265.8" r="2.65"/>
    <circle cx="478.6" cy="264.0" r="2.65"/>
    <circle cx="501.7" cy="260.3" r="2.65"/>
    <circle cx="988.8" cy="124.7" r="2.65"/>
    <circle cx="990.5" cy="121.4" r="2.65"/>
    <circle cx="992.1" cy="126.3" r="2.65"/>
  </g>
  <g fill="#f59e0b" fill-opacity="0.72" stroke="#ffffff" stroke-width="0.45">
    <circle cx="98.5" cy="337.9" r="2.65"/>
    <circle cx="126.4" cy="351.3" r="2.65"/>
    <circle cx="213.7" cy="307.8" r="2.65"/>
    <circle cx="215.3" cy="300.5" r="2.65"/>
    <circle cx="217.0" cy="293.7" r="2.65"/>
    <circle cx="218.6" cy="292.9" r="2.65"/>
    <circle cx="220.2" cy="288.8" r="2.65"/>
    <circle cx="223.5" cy="305.3" r="2.65"/>
    <circle cx="225.2" cy="510.8" r="2.65"/>
    <circle cx="226.8" cy="293.3" r="2.65"/>
    <circle cx="230.1" cy="295.6" r="2.65"/>
    <circle cx="231.8" cy="301.0" r="2.65"/>
    <circle cx="233.4" cy="288.9" r="2.65"/>
    <circle cx="235.1" cy="289.7" r="2.65"/>
    <circle cx="287.7" cy="277.7" r="2.65"/>
    <circle cx="314.1" cy="335.2" r="2.65"/>
    <circle cx="315.7" cy="324.4" r="2.65"/>
    <circle cx="320.6" cy="272.6" r="2.65"/>
    <circle cx="322.3" cy="271.3" r="2.65"/>
    <circle cx="337.1" cy="279.7" r="2.65"/>
    <circle cx="363.4" cy="279.2" r="2.65"/>
    <circle cx="365.1" cy="281.5" r="2.65"/>
    <circle cx="406.2" cy="266.4" r="2.65"/>
    <circle cx="426.0" cy="273.9" r="2.65"/>
    <circle cx="440.8" cy="260.7" r="2.65"/>
    <circle cx="638.3" cy="257.6" r="2.65"/>
    <circle cx="695.9" cy="224.9" r="2.65"/>
    <circle cx="714.0" cy="205.0" r="2.65"/>
    <circle cx="715.6" cy="200.7" r="2.65"/>
    <circle cx="717.3" cy="199.3" r="2.65"/>
    <circle cx="718.9" cy="208.1" r="2.65"/>
    <circle cx="720.6" cy="200.7" r="2.65"/>
    <circle cx="730.4" cy="205.2" r="2.65"/>
    <circle cx="737.0" cy="205.7" r="2.65"/>
    <circle cx="742.0" cy="583.7" r="2.65"/>
    <circle cx="934.5" cy="137.9" r="2.65"/>
    <circle cx="936.2" cy="144.6" r="2.65"/>
    <circle cx="939.5" cy="147.0" r="2.65"/>
    <circle cx="946.0" cy="145.6" r="2.65"/>
    <circle cx="1118.9" cy="117.4" r="2.65"/>
    <circle cx="1127.1" cy="131.6" r="2.65"/>
  </g>
  <g fill="#2563eb" fill-opacity="0.72" stroke="#ffffff" stroke-width="0.45">
    <circle cx="95.2" cy="369.3" r="2.65"/>
    <circle cx="291.0" cy="389.8" r="2.65"/>
    <circle cx="444.1" cy="260.1" r="2.65"/>
    <circle cx="618.5" cy="260.2" r="2.65"/>
    <circle cx="621.8" cy="258.1" r="2.65"/>
    <circle cx="630.1" cy="260.1" r="2.65"/>
    <circle cx="699.2" cy="221.2" r="2.65"/>
    <circle cx="712.3" cy="216.2" r="2.65"/>
    <circle cx="858.8" cy="603.0" r="2.65"/>
    <circle cx="1043.1" cy="115.2" r="2.65"/>
    <circle cx="1066.2" cy="115.5" r="2.65"/>
    <circle cx="1067.8" cy="113.7" r="2.65"/>
    <circle cx="1112.3" cy="119.8" r="2.65"/>
    <circle cx="1138.6" cy="118.6" r="2.65"/>
    <circle cx="1141.9" cy="117.0" r="2.65"/>
    <circle cx="1160.0" cy="586.7" r="2.65"/>
  </g>
  <g fill="#9333ea" fill-opacity="0.72" stroke="#ffffff" stroke-width="0.45">
    <circle cx="129.7" cy="336.4" r="2.65"/>
    <circle cx="131.4" cy="335.0" r="2.65"/>
    <circle cx="136.3" cy="359.3" r="2.65"/>
    <circle cx="142.9" cy="337.0" r="2.65"/>
    <circle cx="152.8" cy="336.1" r="2.65"/>
    <circle cx="156.1" cy="391.9" r="2.65"/>
    <circle cx="251.5" cy="278.2" r="2.65"/>
    <circle cx="253.2" cy="294.9" r="2.65"/>
    <circle cx="256.5" cy="282.2" r="2.65"/>
    <circle cx="258.1" cy="370.8" r="2.65"/>
    <circle cx="325.6" cy="273.5" r="2.65"/>
    <circle cx="407.9" cy="280.2" r="2.65"/>
    <circle cx="419.4" cy="268.6" r="2.65"/>
    <circle cx="574.1" cy="262.2" r="2.65"/>
    <circle cx="631.7" cy="455.6" r="2.65"/>
    <circle cx="648.2" cy="242.3" r="2.65"/>
    <circle cx="651.4" cy="408.8" r="2.65"/>
    <circle cx="653.1" cy="233.3" r="2.65"/>
    <circle cx="654.7" cy="629.2" r="2.65"/>
    <circle cx="658.0" cy="234.4" r="2.65"/>
    <circle cx="659.7" cy="233.4" r="2.65"/>
    <circle cx="661.3" cy="359.0" r="2.65"/>
    <circle cx="664.6" cy="234.7" r="2.65"/>
    <circle cx="667.9" cy="237.9" r="2.65"/>
    <circle cx="669.6" cy="237.3" r="2.65"/>
    <circle cx="671.2" cy="240.1" r="2.65"/>
    <circle cx="672.8" cy="341.1" r="2.65"/>
    <circle cx="674.5" cy="233.1" r="2.65"/>
    <circle cx="676.1" cy="226.6" r="2.65"/>
    <circle cx="677.8" cy="232.1" r="2.65"/>
    <circle cx="681.1" cy="230.5" r="2.65"/>
    <circle cx="682.7" cy="226.4" r="2.65"/>
    <circle cx="684.4" cy="235.8" r="2.65"/>
    <circle cx="687.7" cy="229.9" r="2.65"/>
    <circle cx="692.6" cy="221.3" r="2.65"/>
    <circle cx="740.3" cy="557.7" r="2.65"/>
    <circle cx="743.6" cy="206.2" r="2.65"/>
    <circle cx="746.9" cy="200.8" r="2.65"/>
    <circle cx="748.5" cy="200.7" r="2.65"/>
    <circle cx="750.2" cy="202.2" r="2.65"/>
    <circle cx="751.8" cy="198.0" r="2.65"/>
    <circle cx="753.5" cy="200.9" r="2.65"/>
    <circle cx="758.4" cy="220.4" r="2.65"/>
    <circle cx="760.1" cy="195.4" r="2.65"/>
    <circle cx="761.7" cy="196.8" r="2.65"/>
    <circle cx="763.4" cy="201.4" r="2.65"/>
    <circle cx="765.0" cy="203.9" r="2.65"/>
    <circle cx="769.9" cy="200.1" r="2.65"/>
    <circle cx="771.6" cy="201.1" r="2.65"/>
    <circle cx="773.2" cy="198.5" r="2.65"/>
    <circle cx="774.9" cy="194.3" r="2.65"/>
    <circle cx="779.8" cy="205.1" r="2.65"/>
    <circle cx="797.9" cy="212.2" r="2.65"/>
    <circle cx="804.5" cy="196.8" r="2.65"/>
    <circle cx="814.4" cy="198.7" r="2.65"/>
    <circle cx="816.0" cy="193.7" r="2.65"/>
    <circle cx="817.7" cy="198.9" r="2.65"/>
    <circle cx="821.0" cy="189.2" r="2.65"/>
    <circle cx="824.3" cy="196.6" r="2.65"/>
    <circle cx="825.9" cy="194.3" r="2.65"/>
    <circle cx="827.5" cy="190.5" r="2.65"/>
    <circle cx="829.2" cy="533.5" r="2.65"/>
    <circle cx="840.7" cy="206.5" r="2.65"/>
    <circle cx="845.7" cy="194.2" r="2.65"/>
    <circle cx="847.3" cy="197.6" r="2.65"/>
    <circle cx="848.9" cy="199.5" r="2.65"/>
    <circle cx="850.6" cy="193.4" r="2.65"/>
    <circle cx="860.5" cy="197.6" r="2.65"/>
    <circle cx="863.8" cy="191.0" r="2.65"/>
    <circle cx="865.4" cy="194.4" r="2.65"/>
    <circle cx="868.7" cy="194.4" r="2.65"/>
    <circle cx="870.3" cy="186.7" r="2.65"/>
    <circle cx="875.3" cy="195.6" r="2.65"/>
    <circle cx="876.9" cy="194.0" r="2.65"/>
    <circle cx="878.6" cy="203.6" r="2.65"/>
    <circle cx="880.2" cy="192.0" r="2.65"/>
    <circle cx="881.9" cy="204.5" r="2.65"/>
    <circle cx="904.9" cy="189.5" r="2.65"/>
    <circle cx="906.5" cy="195.3" r="2.65"/>
    <circle cx="908.2" cy="192.0" r="2.65"/>
    <circle cx="995.4" cy="128.5" r="2.65"/>
    <circle cx="997.1" cy="134.8" r="2.65"/>
    <circle cx="1003.6" cy="125.7" r="2.65"/>
    <circle cx="1006.9" cy="132.4" r="2.65"/>
    <circle cx="1008.6" cy="111.5" r="2.65"/>
    <circle cx="1010.2" cy="117.9" r="2.65"/>
    <circle cx="1011.9" cy="120.2" r="2.65"/>
    <circle cx="1013.5" cy="124.1" r="2.65"/>
    <circle cx="1016.8" cy="115.6" r="2.65"/>
    <circle cx="1018.5" cy="122.9" r="2.65"/>
    <circle cx="1021.8" cy="113.5" r="2.65"/>
    <circle cx="1023.4" cy="121.1" r="2.65"/>
    <circle cx="1028.3" cy="131.1" r="2.65"/>
    <circle cx="1030.0" cy="120.7" r="2.65"/>
    <circle cx="1031.6" cy="119.5" r="2.65"/>
    <circle cx="1034.9" cy="116.6" r="2.65"/>
    <circle cx="1041.5" cy="115.2" r="2.65"/>
    <circle cx="1092.5" cy="128.5" r="2.65"/>
    <circle cx="1099.1" cy="122.1" r="2.65"/>
    <circle cx="1100.8" cy="119.6" r="2.65"/>
    <circle cx="1132.0" cy="110.9" r="2.65"/>
    <circle cx="1133.7" cy="117.5" r="2.65"/>
    <circle cx="1148.5" cy="262.5" r="2.65"/>
    <circle cx="1151.8" cy="267.5" r="2.65"/>
  </g>
  <g fill="#db2777" fill-opacity="0.72" stroke="#ffffff" stroke-width="0.45">
    <circle cx="853.9" cy="191.7" r="2.65"/>
    <circle cx="913.1" cy="193.2" r="2.65"/>
    <circle cx="914.8" cy="143.3" r="2.65"/>
    <circle cx="918.1" cy="153.3" r="2.65"/>
    <circle cx="919.7" cy="141.9" r="2.65"/>
    <circle cx="923.0" cy="144.3" r="2.65"/>
    <circle cx="926.3" cy="151.6" r="2.65"/>
    <circle cx="942.8" cy="144.3" r="2.65"/>
    <circle cx="947.7" cy="131.1" r="2.65"/>
    <circle cx="955.9" cy="122.4" r="2.65"/>
    <circle cx="957.6" cy="127.0" r="2.65"/>
    <circle cx="960.9" cy="126.6" r="2.65"/>
    <circle cx="964.1" cy="130.9" r="2.65"/>
    <circle cx="965.8" cy="137.0" r="2.65"/>
    <circle cx="969.1" cy="130.7" r="2.65"/>
    <circle cx="970.7" cy="126.1" r="2.65"/>
    <circle cx="972.4" cy="126.4" r="2.65"/>
    <circle cx="974.0" cy="128.7" r="2.65"/>
    <circle cx="975.7" cy="120.3" r="2.65"/>
    <circle cx="977.3" cy="128.3" r="2.65"/>
    <circle cx="980.6" cy="127.5" r="2.65"/>
    <circle cx="983.9" cy="128.7" r="2.65"/>
    <circle cx="987.2" cy="125.9" r="2.65"/>
    <circle cx="993.8" cy="123.8" r="2.65"/>
    <circle cx="998.7" cy="123.2" r="2.65"/>
    <circle cx="1000.4" cy="131.1" r="2.65"/>
    <circle cx="1025.0" cy="121.2" r="2.65"/>
    <circle cx="1038.2" cy="112.5" r="2.65"/>
    <circle cx="1039.9" cy="121.3" r="2.65"/>
    <circle cx="1044.8" cy="113.2" r="2.65"/>
    <circle cx="1046.4" cy="118.7" r="2.65"/>
    <circle cx="1048.1" cy="116.8" r="2.65"/>
    <circle cx="1049.7" cy="117.6" r="2.65"/>
    <circle cx="1053.0" cy="119.4" r="2.65"/>
    <circle cx="1076.1" cy="117.7" r="2.65"/>
    <circle cx="1104.0" cy="117.3" r="2.65"/>
    <circle cx="1115.6" cy="121.1" r="2.65"/>
    <circle cx="1150.1" cy="257.4" r="2.65"/>
  </g>
  <g fill="#14b8a6" fill-opacity="0.72" stroke="#ffffff" stroke-width="0.45">
    <circle cx="157.7" cy="334.2" r="2.65"/>
    <circle cx="159.4" cy="336.3" r="2.65"/>
    <circle cx="161.0" cy="340.3" r="2.65"/>
    <circle cx="164.3" cy="418.4" r="2.65"/>
    <circle cx="170.9" cy="470.8" r="2.65"/>
    <circle cx="177.5" cy="392.5" r="2.65"/>
    <circle cx="179.1" cy="321.3" r="2.65"/>
    <circle cx="182.4" cy="324.1" r="2.65"/>
    <circle cx="244.9" cy="277.8" r="2.65"/>
    <circle cx="248.2" cy="291.2" r="2.65"/>
    <circle cx="259.7" cy="280.8" r="2.65"/>
    <circle cx="261.4" cy="280.5" r="2.65"/>
    <circle cx="263.0" cy="279.9" r="2.65"/>
    <circle cx="271.3" cy="277.5" r="2.65"/>
    <circle cx="274.6" cy="283.2" r="2.65"/>
    <circle cx="284.4" cy="277.2" r="2.65"/>
    <circle cx="411.2" cy="278.3" r="2.65"/>
    <circle cx="620.2" cy="267.4" r="2.65"/>
    <circle cx="623.5" cy="258.6" r="2.65"/>
    <circle cx="690.9" cy="233.5" r="2.65"/>
    <circle cx="694.2" cy="222.1" r="2.65"/>
    <circle cx="728.8" cy="202.3" r="2.65"/>
    <circle cx="900.0" cy="203.4" r="2.65"/>
    <circle cx="901.6" cy="188.4" r="2.65"/>
    <circle cx="985.5" cy="131.4" r="2.65"/>
    <circle cx="1135.3" cy="112.9" r="2.65"/>
  </g>
  <g fill="#16a34a" fill-opacity="0.72" stroke="#ffffff" stroke-width="0.45">
    <circle cx="105.0" cy="374.1" r="2.65"/>
    <circle cx="108.3" cy="358.0" r="2.65"/>
    <circle cx="110.0" cy="358.8" r="2.65"/>
    <circle cx="128.1" cy="338.3" r="2.65"/>
    <circle cx="187.3" cy="329.1" r="2.65"/>
    <circle cx="189.0" cy="330.2" r="2.65"/>
    <circle cx="192.3" cy="338.0" r="2.65"/>
    <circle cx="193.9" cy="329.6" r="2.65"/>
    <circle cx="195.6" cy="576.2" r="2.65"/>
    <circle cx="197.2" cy="320.9" r="2.65"/>
    <circle cx="202.1" cy="321.3" r="2.65"/>
    <circle cx="208.7" cy="340.4" r="2.65"/>
    <circle cx="236.7" cy="304.6" r="2.65"/>
    <circle cx="241.6" cy="309.1" r="2.65"/>
    <circle cx="243.3" cy="515.0" r="2.65"/>
    <circle cx="266.3" cy="278.0" r="2.65"/>
    <circle cx="276.2" cy="279.2" r="2.65"/>
    <circle cx="277.9" cy="278.4" r="2.65"/>
    <circle cx="300.9" cy="277.3" r="2.65"/>
    <circle cx="302.5" cy="290.3" r="2.65"/>
    <circle cx="304.2" cy="289.2" r="2.65"/>
    <circle cx="305.8" cy="279.7" r="2.65"/>
    <circle cx="307.5" cy="279.2" r="2.65"/>
    <circle cx="312.4" cy="277.7" r="2.65"/>
    <circle cx="327.2" cy="300.7" r="2.65"/>
    <circle cx="328.9" cy="273.1" r="2.65"/>
    <circle cx="330.5" cy="264.6" r="2.65"/>
    <circle cx="332.2" cy="263.4" r="2.65"/>
    <circle cx="333.8" cy="266.7" r="2.65"/>
    <circle cx="335.5" cy="270.3" r="2.65"/>
    <circle cx="347.0" cy="280.6" r="2.65"/>
    <circle cx="358.5" cy="283.8" r="2.65"/>
    <circle cx="360.1" cy="273.9" r="2.65"/>
    <circle cx="361.8" cy="298.2" r="2.65"/>
    <circle cx="370.0" cy="269.0" r="2.65"/>
    <circle cx="379.9" cy="268.0" r="2.65"/>
    <circle cx="389.8" cy="276.3" r="2.65"/>
    <circle cx="391.4" cy="279.2" r="2.65"/>
    <circle cx="396.3" cy="287.6" r="2.65"/>
    <circle cx="398.0" cy="532.2" r="2.65"/>
    <circle cx="417.7" cy="268.5" r="2.65"/>
    <circle cx="422.7" cy="268.4" r="2.65"/>
    <circle cx="424.3" cy="268.9" r="2.65"/>
    <circle cx="447.4" cy="259.1" r="2.65"/>
    <circle cx="450.7" cy="266.4" r="2.65"/>
    <circle cx="452.3" cy="257.2" r="2.65"/>
    <circle cx="454.0" cy="260.5" r="2.65"/>
    <circle cx="455.6" cy="263.9" r="2.65"/>
    <circle cx="457.2" cy="262.8" r="2.65"/>
    <circle cx="460.5" cy="303.2" r="2.65"/>
    <circle cx="463.8" cy="256.4" r="2.65"/>
    <circle cx="465.5" cy="256.4" r="2.65"/>
    <circle cx="468.8" cy="256.6" r="2.65"/>
    <circle cx="470.4" cy="259.0" r="2.65"/>
    <circle cx="472.1" cy="260.1" r="2.65"/>
    <circle cx="473.7" cy="262.1" r="2.65"/>
    <circle cx="475.3" cy="259.5" r="2.65"/>
    <circle cx="483.6" cy="261.0" r="2.65"/>
    <circle cx="486.9" cy="258.3" r="2.65"/>
    <circle cx="488.5" cy="259.2" r="2.65"/>
    <circle cx="490.2" cy="259.8" r="2.65"/>
    <circle cx="491.8" cy="261.1" r="2.65"/>
    <circle cx="496.7" cy="261.2" r="2.65"/>
    <circle cx="505.0" cy="261.4" r="2.65"/>
    <circle cx="506.6" cy="258.7" r="2.65"/>
    <circle cx="508.3" cy="346.1" r="2.65"/>
    <circle cx="509.9" cy="260.6" r="2.65"/>
    <circle cx="513.2" cy="261.4" r="2.65"/>
    <circle cx="514.8" cy="261.0" r="2.65"/>
    <circle cx="516.5" cy="258.6" r="2.65"/>
    <circle cx="519.8" cy="288.8" r="2.65"/>
    <circle cx="521.4" cy="255.4" r="2.65"/>
    <circle cx="528.0" cy="258.4" r="2.65"/>
    <circle cx="529.7" cy="258.0" r="2.65"/>
    <circle cx="532.9" cy="258.5" r="2.65"/>
    <circle cx="534.6" cy="260.6" r="2.65"/>
    <circle cx="536.2" cy="261.0" r="2.65"/>
    <circle cx="537.9" cy="261.3" r="2.65"/>
    <circle cx="541.2" cy="258.1" r="2.65"/>
    <circle cx="542.8" cy="261.4" r="2.65"/>
    <circle cx="544.5" cy="258.3" r="2.65"/>
    <circle cx="546.1" cy="258.4" r="2.65"/>
    <circle cx="547.8" cy="262.6" r="2.65"/>
    <circle cx="554.3" cy="259.7" r="2.65"/>
    <circle cx="556.0" cy="259.1" r="2.65"/>
    <circle cx="559.3" cy="261.4" r="2.65"/>
    <circle cx="560.9" cy="256.3" r="2.65"/>
    <circle cx="562.6" cy="259.7" r="2.65"/>
    <circle cx="564.2" cy="257.3" r="2.65"/>
    <circle cx="567.5" cy="260.3" r="2.65"/>
    <circle cx="569.2" cy="261.1" r="2.65"/>
    <circle cx="570.8" cy="259.7" r="2.65"/>
    <circle cx="572.4" cy="261.3" r="2.65"/>
    <circle cx="575.7" cy="256.6" r="2.65"/>
    <circle cx="577.4" cy="258.5" r="2.65"/>
    <circle cx="580.7" cy="260.9" r="2.65"/>
    <circle cx="582.3" cy="261.0" r="2.65"/>
    <circle cx="584.0" cy="259.4" r="2.65"/>
    <circle cx="587.3" cy="259.0" r="2.65"/>
    <circle cx="588.9" cy="259.1" r="2.65"/>
    <circle cx="590.6" cy="257.7" r="2.65"/>
    <circle cx="592.2" cy="261.3" r="2.65"/>
    <circle cx="595.5" cy="258.7" r="2.65"/>
    <circle cx="597.1" cy="258.3" r="2.65"/>
    <circle cx="598.8" cy="268.1" r="2.65"/>
    <circle cx="603.7" cy="258.8" r="2.65"/>
    <circle cx="607.0" cy="256.3" r="2.65"/>
    <circle cx="610.3" cy="255.0" r="2.65"/>
    <circle cx="613.6" cy="258.9" r="2.65"/>
    <circle cx="615.2" cy="257.4" r="2.65"/>
    <circle cx="625.1" cy="257.1" r="2.65"/>
    <circle cx="635.0" cy="258.4" r="2.65"/>
    <circle cx="704.1" cy="222.6" r="2.65"/>
    <circle cx="705.8" cy="231.6" r="2.65"/>
    <circle cx="707.4" cy="220.9" r="2.65"/>
    <circle cx="723.9" cy="202.0" r="2.65"/>
    <circle cx="732.1" cy="201.0" r="2.65"/>
    <circle cx="733.7" cy="206.9" r="2.65"/>
    <circle cx="745.3" cy="215.3" r="2.65"/>
    <circle cx="756.8" cy="201.2" r="2.65"/>
    <circle cx="776.5" cy="205.1" r="2.65"/>
    <circle cx="786.4" cy="210.2" r="2.65"/>
    <circle cx="788.0" cy="197.7" r="2.65"/>
    <circle cx="789.7" cy="196.6" r="2.65"/>
    <circle cx="791.3" cy="204.5" r="2.65"/>
    <circle cx="793.0" cy="201.7" r="2.65"/>
    <circle cx="796.3" cy="201.0" r="2.65"/>
    <circle cx="799.6" cy="199.0" r="2.65"/>
    <circle cx="801.2" cy="199.6" r="2.65"/>
    <circle cx="806.2" cy="199.2" r="2.65"/>
    <circle cx="807.8" cy="196.9" r="2.65"/>
    <circle cx="811.1" cy="198.3" r="2.65"/>
    <circle cx="830.8" cy="199.5" r="2.65"/>
    <circle cx="837.4" cy="191.1" r="2.65"/>
    <circle cx="839.1" cy="195.6" r="2.65"/>
    <circle cx="842.4" cy="189.9" r="2.65"/>
    <circle cx="844.0" cy="191.7" r="2.65"/>
    <circle cx="852.2" cy="192.1" r="2.65"/>
    <circle cx="855.5" cy="191.4" r="2.65"/>
    <circle cx="872.0" cy="193.6" r="2.65"/>
    <circle cx="893.4" cy="197.9" r="2.65"/>
    <circle cx="895.0" cy="195.5" r="2.65"/>
    <circle cx="898.3" cy="193.4" r="2.65"/>
    <circle cx="924.7" cy="142.3" r="2.65"/>
    <circle cx="931.2" cy="145.8" r="2.65"/>
    <circle cx="941.1" cy="145.5" r="2.65"/>
    <circle cx="944.4" cy="148.9" r="2.65"/>
    <circle cx="1071.1" cy="112.9" r="2.65"/>
    <circle cx="1081.0" cy="116.3" r="2.65"/>
    <circle cx="1082.6" cy="115.3" r="2.65"/>
    <circle cx="1084.3" cy="114.5" r="2.65"/>
    <circle cx="1087.6" cy="117.1" r="2.65"/>
    <circle cx="1089.2" cy="112.1" r="2.65"/>
    <circle cx="1090.9" cy="117.8" r="2.65"/>
    <circle cx="1102.4" cy="117.7" r="2.65"/>
    <circle cx="1107.3" cy="115.5" r="2.65"/>
    <circle cx="1109.0" cy="119.8" r="2.65"/>
    <circle cx="1120.5" cy="126.2" r="2.65"/>
    <circle cx="1122.1" cy="119.2" r="2.65"/>
    <circle cx="1125.4" cy="119.6" r="2.65"/>
    <circle cx="1140.3" cy="113.5" r="2.65"/>
    <circle cx="1145.2" cy="126.5" r="2.65"/>
    <circle cx="1146.8" cy="125.2" r="2.65"/>
    <circle cx="1153.4" cy="260.6" r="2.65"/>
    <circle cx="1155.1" cy="264.7" r="2.65"/>
    <circle cx="1156.7" cy="266.4" r="2.65"/>
    <circle cx="1158.4" cy="258.8" r="2.65"/>
  </g>
  <g fill="#64748b" fill-opacity="0.72" stroke="#ffffff" stroke-width="0.45">
    <circle cx="279.5" cy="280.6" r="2.65"/>
    <circle cx="282.8" cy="293.5" r="2.65"/>
    <circle cx="343.7" cy="280.9" r="2.65"/>
    <circle cx="378.2" cy="267.5" r="2.65"/>
    <circle cx="381.5" cy="266.8" r="2.65"/>
    <circle cx="383.2" cy="268.6" r="2.65"/>
    <circle cx="388.1" cy="268.2" r="2.65"/>
    <circle cx="393.1" cy="268.5" r="2.65"/>
    <circle cx="399.6" cy="267.6" r="2.65"/>
    <circle cx="412.8" cy="289.5" r="2.65"/>
    <circle cx="427.6" cy="262.8" r="2.65"/>
    <circle cx="430.9" cy="259.8" r="2.65"/>
    <circle cx="434.2" cy="258.3" r="2.65"/>
    <circle cx="437.5" cy="262.7" r="2.65"/>
    <circle cx="439.1" cy="257.5" r="2.65"/>
    <circle cx="834.1" cy="242.4" r="2.65"/>
    <circle cx="835.8" cy="194.0" r="2.65"/>
    <circle cx="896.7" cy="196.1" r="2.65"/>
    <circle cx="911.5" cy="202.9" r="2.65"/>
    <circle cx="932.9" cy="143.1" r="2.65"/>
    <circle cx="1079.4" cy="117.6" r="2.65"/>
    <circle cx="1105.7" cy="119.9" r="2.65"/>
  </g>
  <g fill="#ef4444" fill-opacity="0.72" stroke="#ffffff" stroke-width="0.45">
    <circle cx="90.2" cy="395.0" r="1.9"/>
    <circle cx="100.1" cy="349.9" r="1.9"/>
    <circle cx="144.5" cy="357.5" r="1.9"/>
    <circle cx="149.5" cy="332.2" r="2.65"/>
    <circle cx="162.6" cy="343.2" r="1.9"/>
    <circle cx="172.5" cy="481.4" r="2.65"/>
    <circle cx="174.2" cy="372.7" r="2.65"/>
    <circle cx="175.8" cy="430.6" r="2.65"/>
    <circle cx="184.0" cy="321.6" r="2.65"/>
    <circle cx="185.7" cy="334.4" r="1.9"/>
    <circle cx="198.9" cy="471.8" r="2.65"/>
    <circle cx="200.5" cy="332.9" r="2.65"/>
    <circle cx="203.8" cy="327.5" r="2.65"/>
    <circle cx="228.5" cy="290.1" r="2.65"/>
    <circle cx="238.4" cy="291.9" r="2.65"/>
    <circle cx="240.0" cy="332.6" r="1.9"/>
    <circle cx="246.6" cy="278.7" r="2.65"/>
    <circle cx="249.9" cy="306.4" r="1.9"/>
    <circle cx="268.0" cy="277.8" r="2.65"/>
    <circle cx="269.6" cy="278.3" r="2.65"/>
    <circle cx="272.9" cy="280.4" r="2.65"/>
    <circle cx="286.1" cy="288.1" r="2.65"/>
    <circle cx="289.4" cy="289.9" r="2.65"/>
    <circle cx="294.3" cy="277.6" r="2.65"/>
    <circle cx="296.0" cy="289.0" r="2.65"/>
    <circle cx="297.6" cy="275.8" r="2.65"/>
    <circle cx="299.2" cy="277.1" r="2.65"/>
    <circle cx="309.1" cy="276.9" r="2.65"/>
    <circle cx="310.8" cy="277.5" r="2.65"/>
    <circle cx="317.3" cy="267.3" r="2.65"/>
    <circle cx="319.0" cy="268.4" r="2.65"/>
    <circle cx="323.9" cy="308.3" r="1.9"/>
    <circle cx="342.0" cy="269.2" r="2.65"/>
    <circle cx="348.6" cy="267.0" r="2.65"/>
    <circle cx="350.3" cy="300.1" r="2.65"/>
    <circle cx="351.9" cy="268.0" r="2.65"/>
    <circle cx="353.6" cy="279.3" r="2.65"/>
    <circle cx="355.2" cy="267.3" r="2.65"/>
    <circle cx="356.8" cy="278.0" r="2.65"/>
    <circle cx="366.7" cy="267.8" r="2.65"/>
    <circle cx="368.4" cy="284.2" r="2.65"/>
    <circle cx="371.7" cy="266.6" r="2.65"/>
    <circle cx="373.3" cy="268.0" r="2.65"/>
    <circle cx="375.0" cy="267.2" r="2.65"/>
    <circle cx="376.6" cy="265.8" r="2.65"/>
    <circle cx="384.8" cy="294.1" r="1.9"/>
    <circle cx="394.7" cy="266.8" r="2.65"/>
    <circle cx="402.9" cy="265.5" r="2.65"/>
    <circle cx="404.6" cy="268.4" r="2.65"/>
    <circle cx="414.5" cy="287.1" r="1.9"/>
    <circle cx="421.0" cy="267.5" r="2.65"/>
    <circle cx="429.3" cy="262.3" r="2.65"/>
    <circle cx="432.6" cy="259.3" r="2.65"/>
    <circle cx="435.8" cy="254.8" r="2.65"/>
    <circle cx="442.4" cy="263.0" r="1.9"/>
    <circle cx="445.7" cy="255.9" r="2.65"/>
    <circle cx="449.0" cy="261.0" r="2.65"/>
    <circle cx="458.9" cy="260.9" r="2.65"/>
    <circle cx="462.2" cy="261.4" r="2.65"/>
    <circle cx="467.1" cy="258.4" r="2.65"/>
    <circle cx="480.3" cy="253.8" r="2.65"/>
    <circle cx="481.9" cy="261.7" r="2.65"/>
    <circle cx="485.2" cy="257.2" r="2.65"/>
    <circle cx="495.1" cy="263.8" r="2.65"/>
    <circle cx="503.3" cy="259.7" r="2.65"/>
    <circle cx="511.6" cy="259.2" r="2.65"/>
    <circle cx="518.1" cy="256.1" r="2.65"/>
    <circle cx="523.1" cy="264.7" r="2.65"/>
    <circle cx="526.4" cy="259.1" r="2.65"/>
    <circle cx="531.3" cy="258.2" r="2.65"/>
    <circle cx="539.5" cy="263.2" r="2.65"/>
    <circle cx="549.4" cy="256.8" r="2.65"/>
    <circle cx="552.7" cy="256.2" r="2.65"/>
    <circle cx="557.6" cy="263.3" r="1.9"/>
    <circle cx="565.9" cy="256.9" r="2.65"/>
    <circle cx="579.0" cy="255.7" r="2.65"/>
    <circle cx="585.6" cy="259.9" r="2.65"/>
    <circle cx="593.8" cy="262.5" r="2.65"/>
    <circle cx="600.4" cy="261.4" r="2.65"/>
    <circle cx="602.1" cy="258.4" r="1.9"/>
    <circle cx="605.4" cy="253.5" r="2.65"/>
    <circle cx="611.9" cy="260.3" r="2.65"/>
    <circle cx="636.6" cy="253.6" r="2.65"/>
    <circle cx="656.4" cy="238.4" r="2.65"/>
    <circle cx="663.0" cy="239.8" r="1.9"/>
    <circle cx="679.4" cy="234.7" r="1.9"/>
    <circle cx="686.0" cy="234.1" r="1.9"/>
    <circle cx="689.3" cy="229.0" r="2.65"/>
    <circle cx="700.8" cy="222.2" r="2.65"/>
    <circle cx="702.5" cy="224.9" r="1.9"/>
    <circle cx="709.1" cy="222.4" r="2.65"/>
    <circle cx="722.2" cy="205.1" r="1.9"/>
    <circle cx="738.7" cy="209.4" r="2.65"/>
    <circle cx="755.1" cy="196.8" r="1.9"/>
    <circle cx="783.1" cy="200.1" r="1.9"/>
    <circle cx="809.4" cy="201.7" r="2.65"/>
    <circle cx="819.3" cy="202.3" r="1.9"/>
    <circle cx="822.6" cy="197.1" r="1.9"/>
    <circle cx="873.6" cy="198.7" r="1.9"/>
    <circle cx="903.3" cy="196.1" r="1.9"/>
    <circle cx="916.4" cy="150.6" r="1.9"/>
    <circle cx="921.4" cy="139.1" r="1.9"/>
    <circle cx="927.9" cy="139.1" r="1.9"/>
    <circle cx="929.6" cy="147.3" r="1.9"/>
    <circle cx="949.3" cy="126.1" r="1.9"/>
    <circle cx="951.0" cy="129.1" r="1.9"/>
    <circle cx="952.6" cy="126.6" r="2.65"/>
    <circle cx="954.3" cy="130.6" r="2.65"/>
    <circle cx="959.2" cy="119.9" r="2.65"/>
    <circle cx="962.5" cy="129.2" r="1.9"/>
    <circle cx="967.4" cy="123.8" r="2.65"/>
    <circle cx="979.0" cy="115.5" r="2.65"/>
    <circle cx="982.3" cy="122.4" r="1.9"/>
    <circle cx="1002.0" cy="119.8" r="2.65"/>
    <circle cx="1005.3" cy="119.3" r="1.9"/>
    <circle cx="1015.2" cy="119.9" r="1.9"/>
    <circle cx="1020.1" cy="119.3" r="1.9"/>
    <circle cx="1026.7" cy="119.6" r="1.9"/>
    <circle cx="1033.3" cy="114.4" r="2.65"/>
    <circle cx="1036.6" cy="112.2" r="1.9"/>
    <circle cx="1051.4" cy="112.9" r="2.65"/>
    <circle cx="1074.4" cy="108.2" r="2.65"/>
    <circle cx="1085.9" cy="112.1" r="2.65"/>
    <circle cx="1095.8" cy="121.9" r="1.9"/>
    <circle cx="1097.5" cy="111.7" r="2.65"/>
    <circle cx="1110.6" cy="113.9" r="2.65"/>
    <circle cx="1113.9" cy="108.3" r="2.65"/>
    <circle cx="1123.8" cy="110.3" r="2.65"/>
    <circle cx="1128.7" cy="109.4" r="2.65"/>
    <circle cx="1130.4" cy="118.3" r="2.65"/>
  </g>
  <g stroke="#ef4444" stroke-width="1" stroke-opacity="0.45">
    <line x1="86.6" y1="648.0" x2="90.6" y2="652.0"/>
    <line x1="86.6" y1="652.0" x2="90.6" y2="648.0"/>
    <line x1="89.9" y1="648.0" x2="93.9" y2="652.0"/>
    <line x1="89.9" y1="652.0" x2="93.9" y2="648.0"/>
    <line x1="99.7" y1="648.0" x2="103.7" y2="652.0"/>
    <line x1="99.7" y1="652.0" x2="103.7" y2="648.0"/>
    <line x1="101.4" y1="648.0" x2="105.4" y2="652.0"/>
    <line x1="101.4" y1="652.0" x2="105.4" y2="648.0"/>
    <line x1="104.7" y1="648.0" x2="108.7" y2="652.0"/>
    <line x1="104.7" y1="652.0" x2="108.7" y2="648.0"/>
    <line x1="111.3" y1="648.0" x2="115.3" y2="652.0"/>
    <line x1="111.3" y1="652.0" x2="115.3" y2="648.0"/>
    <line x1="116.2" y1="648.0" x2="120.2" y2="652.0"/>
    <line x1="116.2" y1="652.0" x2="120.2" y2="648.0"/>
    <line x1="117.9" y1="648.0" x2="121.9" y2="652.0"/>
    <line x1="117.9" y1="652.0" x2="121.9" y2="648.0"/>
    <line x1="122.8" y1="648.0" x2="126.8" y2="652.0"/>
    <line x1="122.8" y1="652.0" x2="126.8" y2="648.0"/>
    <line x1="131.0" y1="648.0" x2="135.0" y2="652.0"/>
    <line x1="131.0" y1="652.0" x2="135.0" y2="648.0"/>
    <line x1="132.7" y1="648.0" x2="136.7" y2="652.0"/>
    <line x1="132.7" y1="652.0" x2="136.7" y2="648.0"/>
    <line x1="136.0" y1="648.0" x2="140.0" y2="652.0"/>
    <line x1="136.0" y1="652.0" x2="140.0" y2="648.0"/>
    <line x1="137.6" y1="648.0" x2="141.6" y2="652.0"/>
    <line x1="137.6" y1="652.0" x2="141.6" y2="648.0"/>
    <line x1="139.2" y1="648.0" x2="143.2" y2="652.0"/>
    <line x1="139.2" y1="652.0" x2="143.2" y2="648.0"/>
    <line x1="144.2" y1="648.0" x2="148.2" y2="652.0"/>
    <line x1="144.2" y1="652.0" x2="148.2" y2="648.0"/>
    <line x1="145.8" y1="648.0" x2="149.8" y2="652.0"/>
    <line x1="145.8" y1="652.0" x2="149.8" y2="648.0"/>
    <line x1="149.1" y1="648.0" x2="153.1" y2="652.0"/>
    <line x1="149.1" y1="652.0" x2="153.1" y2="648.0"/>
    <line x1="152.4" y1="648.0" x2="156.4" y2="652.0"/>
    <line x1="152.4" y1="652.0" x2="156.4" y2="648.0"/>
    <line x1="163.9" y1="648.0" x2="167.9" y2="652.0"/>
    <line x1="163.9" y1="652.0" x2="167.9" y2="648.0"/>
    <line x1="167.2" y1="648.0" x2="171.2" y2="652.0"/>
    <line x1="167.2" y1="652.0" x2="171.2" y2="648.0"/>
    <line x1="178.7" y1="648.0" x2="182.7" y2="652.0"/>
    <line x1="178.7" y1="652.0" x2="182.7" y2="648.0"/>
    <line x1="188.6" y1="648.0" x2="192.6" y2="652.0"/>
    <line x1="188.6" y1="652.0" x2="192.6" y2="648.0"/>
    <line x1="203.4" y1="648.0" x2="207.4" y2="652.0"/>
    <line x1="203.4" y1="652.0" x2="207.4" y2="648.0"/>
    <line x1="205.1" y1="648.0" x2="209.1" y2="652.0"/>
    <line x1="205.1" y1="652.0" x2="209.1" y2="648.0"/>
    <line x1="208.4" y1="648.0" x2="212.4" y2="652.0"/>
    <line x1="208.4" y1="652.0" x2="212.4" y2="648.0"/>
    <line x1="210.0" y1="648.0" x2="214.0" y2="652.0"/>
    <line x1="210.0" y1="652.0" x2="214.0" y2="648.0"/>
    <line x1="219.9" y1="648.0" x2="223.9" y2="652.0"/>
    <line x1="219.9" y1="652.0" x2="223.9" y2="648.0"/>
    <line x1="252.8" y1="648.0" x2="256.8" y2="652.0"/>
    <line x1="252.8" y1="652.0" x2="256.8" y2="648.0"/>
    <line x1="262.7" y1="648.0" x2="266.7" y2="652.0"/>
    <line x1="262.7" y1="652.0" x2="266.7" y2="648.0"/>
    <line x1="279.1" y1="648.0" x2="283.1" y2="652.0"/>
    <line x1="279.1" y1="652.0" x2="283.1" y2="648.0"/>
    <line x1="290.7" y1="648.0" x2="294.7" y2="652.0"/>
    <line x1="290.7" y1="652.0" x2="294.7" y2="648.0"/>
    <line x1="336.7" y1="648.0" x2="340.7" y2="652.0"/>
    <line x1="336.7" y1="652.0" x2="340.7" y2="648.0"/>
    <line x1="343.3" y1="648.0" x2="347.3" y2="652.0"/>
    <line x1="343.3" y1="652.0" x2="347.3" y2="648.0"/>
    <line x1="384.5" y1="648.0" x2="388.5" y2="652.0"/>
    <line x1="384.5" y1="652.0" x2="388.5" y2="648.0"/>
    <line x1="407.5" y1="648.0" x2="411.5" y2="652.0"/>
    <line x1="407.5" y1="652.0" x2="411.5" y2="648.0"/>
    <line x1="522.7" y1="648.0" x2="526.7" y2="652.0"/>
    <line x1="522.7" y1="652.0" x2="526.7" y2="648.0"/>
    <line x1="549.1" y1="648.0" x2="553.1" y2="652.0"/>
    <line x1="549.1" y1="652.0" x2="553.1" y2="648.0"/>
    <line x1="614.9" y1="648.0" x2="618.9" y2="652.0"/>
    <line x1="614.9" y1="652.0" x2="618.9" y2="648.0"/>
    <line x1="624.8" y1="648.0" x2="628.8" y2="652.0"/>
    <line x1="624.8" y1="652.0" x2="628.8" y2="648.0"/>
    <line x1="626.4" y1="648.0" x2="630.4" y2="652.0"/>
    <line x1="626.4" y1="652.0" x2="630.4" y2="648.0"/>
    <line x1="631.3" y1="648.0" x2="635.3" y2="652.0"/>
    <line x1="631.3" y1="652.0" x2="635.3" y2="648.0"/>
    <line x1="637.9" y1="648.0" x2="641.9" y2="652.0"/>
    <line x1="637.9" y1="652.0" x2="641.9" y2="648.0"/>
    <line x1="639.6" y1="648.0" x2="643.6" y2="652.0"/>
    <line x1="639.6" y1="652.0" x2="643.6" y2="648.0"/>
    <line x1="641.2" y1="648.0" x2="645.2" y2="652.0"/>
    <line x1="641.2" y1="652.0" x2="645.2" y2="648.0"/>
    <line x1="642.9" y1="648.0" x2="646.9" y2="652.0"/>
    <line x1="642.9" y1="652.0" x2="646.9" y2="648.0"/>
    <line x1="644.5" y1="648.0" x2="648.5" y2="652.0"/>
    <line x1="644.5" y1="652.0" x2="648.5" y2="648.0"/>
    <line x1="647.8" y1="648.0" x2="651.8" y2="652.0"/>
    <line x1="647.8" y1="652.0" x2="651.8" y2="648.0"/>
    <line x1="664.3" y1="648.0" x2="668.3" y2="652.0"/>
    <line x1="664.3" y1="652.0" x2="668.3" y2="648.0"/>
    <line x1="695.5" y1="648.0" x2="699.5" y2="652.0"/>
    <line x1="695.5" y1="652.0" x2="699.5" y2="648.0"/>
    <line x1="708.7" y1="648.0" x2="712.7" y2="652.0"/>
    <line x1="708.7" y1="652.0" x2="712.7" y2="648.0"/>
    <line x1="723.5" y1="648.0" x2="727.5" y2="652.0"/>
    <line x1="723.5" y1="652.0" x2="727.5" y2="648.0"/>
    <line x1="725.2" y1="648.0" x2="729.2" y2="652.0"/>
    <line x1="725.2" y1="652.0" x2="729.2" y2="648.0"/>
    <line x1="733.4" y1="648.0" x2="737.4" y2="652.0"/>
    <line x1="733.4" y1="652.0" x2="737.4" y2="648.0"/>
    <line x1="764.7" y1="648.0" x2="768.7" y2="652.0"/>
    <line x1="764.7" y1="652.0" x2="768.7" y2="648.0"/>
    <line x1="766.3" y1="648.0" x2="770.3" y2="652.0"/>
    <line x1="766.3" y1="652.0" x2="770.3" y2="648.0"/>
    <line x1="776.2" y1="648.0" x2="780.2" y2="652.0"/>
    <line x1="776.2" y1="652.0" x2="780.2" y2="648.0"/>
    <line x1="779.5" y1="648.0" x2="783.5" y2="652.0"/>
    <line x1="779.5" y1="652.0" x2="783.5" y2="648.0"/>
    <line x1="782.8" y1="648.0" x2="786.8" y2="652.0"/>
    <line x1="782.8" y1="652.0" x2="786.8" y2="648.0"/>
    <line x1="792.6" y1="648.0" x2="796.6" y2="652.0"/>
    <line x1="792.6" y1="652.0" x2="796.6" y2="648.0"/>
    <line x1="800.9" y1="648.0" x2="804.9" y2="652.0"/>
    <line x1="800.9" y1="652.0" x2="804.9" y2="648.0"/>
    <line x1="810.7" y1="648.0" x2="814.7" y2="652.0"/>
    <line x1="810.7" y1="652.0" x2="814.7" y2="648.0"/>
    <line x1="855.2" y1="648.0" x2="859.2" y2="652.0"/>
    <line x1="855.2" y1="652.0" x2="859.2" y2="648.0"/>
    <line x1="860.1" y1="648.0" x2="864.1" y2="652.0"/>
    <line x1="860.1" y1="652.0" x2="864.1" y2="648.0"/>
    <line x1="865.0" y1="648.0" x2="869.0" y2="652.0"/>
    <line x1="865.0" y1="652.0" x2="869.0" y2="648.0"/>
    <line x1="881.5" y1="648.0" x2="885.5" y2="652.0"/>
    <line x1="881.5" y1="652.0" x2="885.5" y2="648.0"/>
    <line x1="883.2" y1="648.0" x2="887.2" y2="652.0"/>
    <line x1="883.2" y1="652.0" x2="887.2" y2="648.0"/>
    <line x1="884.8" y1="648.0" x2="888.8" y2="652.0"/>
    <line x1="884.8" y1="652.0" x2="888.8" y2="648.0"/>
    <line x1="888.1" y1="648.0" x2="892.1" y2="652.0"/>
    <line x1="888.1" y1="652.0" x2="892.1" y2="648.0"/>
    <line x1="889.7" y1="648.0" x2="893.7" y2="652.0"/>
    <line x1="889.7" y1="652.0" x2="893.7" y2="648.0"/>
    <line x1="907.8" y1="648.0" x2="911.8" y2="652.0"/>
    <line x1="907.8" y1="652.0" x2="911.8" y2="648.0"/>
    <line x1="935.8" y1="648.0" x2="939.8" y2="652.0"/>
    <line x1="935.8" y1="652.0" x2="939.8" y2="648.0"/>
    <line x1="1052.7" y1="648.0" x2="1056.7" y2="652.0"/>
    <line x1="1052.7" y1="652.0" x2="1056.7" y2="648.0"/>
    <line x1="1054.3" y1="648.0" x2="1058.3" y2="652.0"/>
    <line x1="1054.3" y1="652.0" x2="1058.3" y2="648.0"/>
    <line x1="1056.0" y1="648.0" x2="1060.0" y2="652.0"/>
    <line x1="1056.0" y1="652.0" x2="1060.0" y2="648.0"/>
    <line x1="1057.6" y1="648.0" x2="1061.6" y2="652.0"/>
    <line x1="1057.6" y1="652.0" x2="1061.6" y2="648.0"/>
    <line x1="1059.3" y1="648.0" x2="1063.3" y2="652.0"/>
    <line x1="1059.3" y1="652.0" x2="1063.3" y2="648.0"/>
    <line x1="1060.9" y1="648.0" x2="1064.9" y2="652.0"/>
    <line x1="1060.9" y1="652.0" x2="1064.9" y2="648.0"/>
    <line x1="1062.5" y1="648.0" x2="1066.5" y2="652.0"/>
    <line x1="1062.5" y1="652.0" x2="1066.5" y2="648.0"/>
    <line x1="1067.5" y1="648.0" x2="1071.5" y2="652.0"/>
    <line x1="1067.5" y1="652.0" x2="1071.5" y2="648.0"/>
    <line x1="1070.8" y1="648.0" x2="1074.8" y2="652.0"/>
    <line x1="1070.8" y1="652.0" x2="1074.8" y2="648.0"/>
    <line x1="1075.7" y1="648.0" x2="1079.7" y2="652.0"/>
    <line x1="1075.7" y1="652.0" x2="1079.7" y2="648.0"/>
    <line x1="1092.2" y1="648.0" x2="1096.2" y2="652.0"/>
    <line x1="1092.2" y1="652.0" x2="1096.2" y2="648.0"/>
    <line x1="1115.2" y1="648.0" x2="1119.2" y2="652.0"/>
    <line x1="1115.2" y1="652.0" x2="1119.2" y2="648.0"/>
    <line x1="1135.0" y1="648.0" x2="1139.0" y2="652.0"/>
    <line x1="1135.0" y1="652.0" x2="1139.0" y2="648.0"/>
    <line x1="1141.5" y1="648.0" x2="1145.5" y2="652.0"/>
    <line x1="1141.5" y1="652.0" x2="1145.5" y2="648.0"/>
  </g>
  <polyline fill="none" stroke="#111827" stroke-opacity="0.52" stroke-width="2.4" stroke-dasharray="8 7" stroke-linecap="round" stroke-linejoin="round" points="83.6,380.2 85.3,380.2 86.9,380.2 88.6,380.2 90.2,380.2 91.9,380.2 93.5,380.2 95.2,369.3 96.8,346.2 98.5,337.9 100.1,337.9 101.7,337.9 103.4,337.9 105.0,337.9 106.7,337.9 108.3,337.9 110.0,337.9 111.6,337.9 113.3,337.9 114.9,337.9 116.6,337.9 118.2,337.9 119.9,337.9 121.5,337.9 123.1,337.9 124.8,337.9 126.4,337.9 128.1,337.9 129.7,336.4 131.4,335.0 133.0,335.0 134.7,335.0 136.3,335.0 138.0,335.0 139.6,335.0 141.2,335.0 142.9,335.0 144.5,335.0 146.2,335.0 147.8,335.0 149.5,332.2 151.1,332.2 152.8,332.2 154.4,332.2 156.1,332.2 157.7,332.2 159.4,332.2 161.0,332.2 162.6,332.2 164.3,332.2 165.9,332.2 167.6,332.2 169.2,332.2 170.9,332.2 172.5,332.2 174.2,332.2 175.8,332.2 177.5,332.2 179.1,321.3 180.7,321.3 182.4,321.3 184.0,321.3 185.7,321.3 187.3,321.3 189.0,321.3 190.6,321.3 192.3,321.3 193.9,321.3 195.6,321.3 197.2,320.9 198.9,320.9 200.5,320.9 202.1,320.9 203.8,320.9 205.4,320.9 207.1,320.9 208.7,320.9 210.4,320.9 212.0,320.9 213.7,307.8 215.3,300.5 217.0,293.7 218.6,292.9 220.2,288.8 221.9,288.8 223.5,288.8 225.2,288.8 226.8,288.8 228.5,288.8 230.1,288.8 231.8,288.8 233.4,288.8 235.1,288.8 236.7,288.8 238.4,288.8 240.0,288.8 241.6,288.8 243.3,288.8 244.9,277.8 246.6,277.8 248.2,277.8 249.9,277.8 251.5,277.8 253.2,277.8 254.8,277.8 256.5,277.8 258.1,277.8 259.7,277.8 261.4,277.8 263.0,277.8 264.7,277.8 266.3,277.8 268.0,277.8 269.6,277.8 271.3,277.5 272.9,277.5 274.6,277.5 276.2,277.5 277.9,277.5 279.5,277.5 281.1,277.5 282.8,277.5 284.4,277.2 286.1,277.2 287.7,277.2 289.4,277.2 291.0,277.2 292.7,277.2 294.3,277.2 296.0,277.2 297.6,275.8 299.2,275.8 300.9,275.8 302.5,275.8 304.2,275.8 305.8,275.8 307.5,275.8 309.1,275.8 310.8,275.8 312.4,275.8 314.1,275.8 315.7,275.8 317.3,267.3 319.0,267.3 320.6,267.3 322.3,267.3 323.9,267.3 325.6,267.3 327.2,267.3 328.9,267.3 330.5,264.6 332.2,263.4 333.8,263.4 335.5,263.4 337.1,263.4 338.7,263.4 340.4,263.4 342.0,263.4 343.7,263.4 345.3,263.4 347.0,263.4 348.6,263.4 350.3,263.4 351.9,263.4 353.6,263.4 355.2,263.4 356.8,263.4 358.5,263.4 360.1,263.4 361.8,263.4 363.4,263.4 365.1,263.4 366.7,263.4 368.4,263.4 370.0,263.4 371.7,263.4 373.3,263.4 375.0,263.4 376.6,263.4 378.2,263.4 379.9,263.4 381.5,263.4 383.2,263.4 384.8,263.4 386.5,263.4 388.1,263.4 389.8,263.4 391.4,263.4 393.1,263.4 394.7,263.4 396.3,263.4 398.0,263.4 399.6,263.4 401.3,263.4 402.9,263.4 404.6,263.4 406.2,263.4 407.9,263.4 409.5,263.4 411.2,263.4 412.8,263.4 414.5,263.4 416.1,263.4 417.7,263.4 419.4,263.4 421.0,263.4 422.7,263.4 424.3,263.4 426.0,263.4 427.6,262.8 429.3,262.3 430.9,259.8 432.6,259.3 434.2,258.3 435.8,254.8 437.5,254.8 439.1,254.8 440.8,254.8 442.4,254.8 444.1,254.8 445.7,254.8 447.4,254.8 449.0,254.8 450.7,254.8 452.3,254.8 454.0,254.8 455.6,254.8 457.2,254.8 458.9,254.8 460.5,254.8 462.2,254.8 463.8,254.8 465.5,254.8 467.1,254.8 468.8,254.8 470.4,254.8 472.1,254.8 473.7,254.8 475.3,254.8 477.0,254.8 478.6,254.8 480.3,253.8 481.9,253.8 483.6,253.8 485.2,253.8 486.9,253.8 488.5,253.8 490.2,253.8 491.8,253.8 493.5,253.8 495.1,253.8 496.7,253.8 498.4,253.8 500.0,253.8 501.7,253.8 503.3,253.8 505.0,253.8 506.6,253.8 508.3,253.8 509.9,253.8 511.6,253.8 513.2,253.8 514.8,253.8 516.5,253.8 518.1,253.8 519.8,253.8 521.4,253.8 523.1,253.8 524.7,253.8 526.4,253.8 528.0,253.8 529.7,253.8 531.3,253.8 532.9,253.8 534.6,253.8 536.2,253.8 537.9,253.8 539.5,253.8 541.2,253.8 542.8,253.8 544.5,253.8 546.1,253.8 547.8,253.8 549.4,253.8 551.1,253.8 552.7,253.8 554.3,253.8 556.0,253.8 557.6,253.8 559.3,253.8 560.9,253.8 562.6,253.8 564.2,253.8 565.9,253.8 567.5,253.8 569.2,253.8 570.8,253.8 572.4,253.8 574.1,253.8 575.7,253.8 577.4,253.8 579.0,253.8 580.7,253.8 582.3,253.8 584.0,253.8 585.6,253.8 587.3,253.8 588.9,253.8 590.6,253.8 592.2,253.8 593.8,253.8 595.5,253.8 597.1,253.8 598.8,253.8 600.4,253.8 602.1,253.8 603.7,253.8 605.4,253.5 607.0,253.5 608.7,253.5 610.3,253.5 611.9,253.5 613.6,253.5 615.2,253.5 616.9,253.5 618.5,253.5 620.2,253.5 621.8,253.5 623.5,253.5 625.1,253.5 626.8,253.5 628.4,253.5 630.1,253.5 631.7,253.5 633.3,253.5 635.0,253.5 636.6,253.5 638.3,253.5 639.9,253.5 641.6,253.5 643.2,253.5 644.9,253.5 646.5,253.5 648.2,242.3 649.8,242.3 651.4,242.3 653.1,233.3 654.7,233.3 656.4,233.3 658.0,233.3 659.7,233.3 661.3,233.3 663.0,233.3 664.6,233.3 666.3,233.3 667.9,233.3 669.6,233.3 671.2,233.3 672.8,233.3 674.5,233.1 676.1,226.6 677.8,226.6 679.4,226.6 681.1,226.6 682.7,226.4 684.4,226.4 686.0,226.4 687.7,226.4 689.3,226.4 690.9,226.4 692.6,221.3 694.2,221.3 695.9,221.3 697.5,221.3 699.2,221.2 700.8,221.2 702.5,221.2 704.1,221.2 705.8,221.2 707.4,220.9 709.1,220.9 710.7,220.9 712.3,216.2 714.0,205.0 715.6,200.7 717.3,199.3 718.9,199.3 720.6,199.3 722.2,199.3 723.9,199.3 725.5,199.3 727.2,199.3 728.8,199.3 730.4,199.3 732.1,199.3 733.7,199.3 735.4,199.3 737.0,199.3 738.7,199.3 740.3,199.3 742.0,199.3 743.6,199.3 745.3,199.3 746.9,199.3 748.5,199.3 750.2,199.3 751.8,198.0 753.5,198.0 755.1,198.0 756.8,198.0 758.4,198.0 760.1,195.4 761.7,195.4 763.4,195.4 765.0,195.4 766.7,195.4 768.3,195.4 769.9,195.4 771.6,195.4 773.2,195.4 774.9,194.3 776.5,194.3 778.2,194.3 779.8,194.3 781.5,194.3 783.1,194.3 784.8,194.3 786.4,194.3 788.0,194.3 789.7,194.3 791.3,194.3 793.0,194.3 794.6,194.3 796.3,194.3 797.9,194.3 799.6,194.3 801.2,194.3 802.9,194.3 804.5,194.3 806.2,194.3 807.8,194.3 809.4,194.3 811.1,194.3 812.7,194.3 814.4,194.3 816.0,193.7 817.7,193.7 819.3,193.7 821.0,189.2 822.6,189.2 824.3,189.2 825.9,189.2 827.5,189.2 829.2,189.2 830.8,189.2 832.5,189.2 834.1,189.2 835.8,189.2 837.4,189.2 839.1,189.2 840.7,189.2 842.4,189.2 844.0,189.2 845.7,189.2 847.3,189.2 848.9,189.2 850.6,189.2 852.2,189.2 853.9,189.2 855.5,189.2 857.2,189.2 858.8,189.2 860.5,189.2 862.1,189.2 863.8,189.2 865.4,189.2 867.0,189.2 868.7,189.2 870.3,186.7 872.0,186.7 873.6,186.7 875.3,186.7 876.9,186.7 878.6,186.7 880.2,186.7 881.9,186.7 883.5,186.7 885.2,186.7 886.8,186.7 888.4,186.7 890.1,186.7 891.7,186.7 893.4,186.7 895.0,186.7 896.7,186.7 898.3,186.7 900.0,186.7 901.6,186.7 903.3,186.7 904.9,186.7 906.5,186.7 908.2,186.7 909.8,186.7 911.5,186.7 913.1,186.7 914.8,143.3 916.4,143.3 918.1,143.3 919.7,141.9 921.4,141.9 923.0,141.9 924.7,141.9 926.3,141.9 927.9,141.9 929.6,141.9 931.2,141.9 932.9,141.9 934.5,137.9 936.2,137.9 937.8,137.9 939.5,137.9 941.1,137.9 942.8,137.9 944.4,137.9 946.0,137.9 947.7,131.1 949.3,131.1 951.0,131.1 952.6,126.6 954.3,126.6 955.9,122.4 957.6,122.4 959.2,119.9 960.9,119.9 962.5,119.9 964.1,119.9 965.8,119.9 967.4,119.9 969.1,119.9 970.7,119.9 972.4,119.9 974.0,119.9 975.7,119.9 977.3,119.9 979.0,115.5 980.6,115.5 982.3,115.5 983.9,115.5 985.5,115.5 987.2,115.5 988.8,115.5 990.5,115.5 992.1,115.5 993.8,115.5 995.4,115.5 997.1,115.5 998.7,115.5 1000.4,115.5 1002.0,115.5 1003.6,115.5 1005.3,115.5 1006.9,115.5 1008.6,111.5 1010.2,111.5 1011.9,111.5 1013.5,111.5 1015.2,111.5 1016.8,111.5 1018.5,111.5 1020.1,111.5 1021.8,111.5 1023.4,111.5 1025.0,111.5 1026.7,111.5 1028.3,111.5 1030.0,111.5 1031.6,111.5 1033.3,111.5 1034.9,111.5 1036.6,111.5 1038.2,111.5 1039.9,111.5 1041.5,111.5 1043.1,111.5 1044.8,111.5 1046.4,111.5 1048.1,111.5 1049.7,111.5 1051.4,111.5 1053.0,111.5 1054.7,111.5 1056.3,111.5 1058.0,111.5 1059.6,111.5 1061.3,111.5 1062.9,111.5 1064.5,111.5 1066.2,111.5 1067.8,111.5 1069.5,111.5 1071.1,111.5 1072.8,111.5 1074.4,108.2 1076.1,108.2 1077.7,108.2 1079.4,108.2 1081.0,108.2 1082.6,108.2 1084.3,108.2 1085.9,108.2 1087.6,108.2 1089.2,108.2 1090.9,108.2 1092.5,108.2 1094.2,108.2 1095.8,108.2 1097.5,108.2 1099.1,108.2 1100.8,108.2 1102.4,108.2 1104.0,108.2 1105.7,108.2 1107.3,108.2 1109.0,108.2 1110.6,108.2 1112.3,108.2 1113.9,108.2 1115.6,108.2 1117.2,108.2 1118.9,108.2 1120.5,108.2 1122.1,108.2 1123.8,108.2 1125.4,108.2 1127.1,108.2 1128.7,108.2 1130.4,108.2 1132.0,108.2 1133.7,108.2 1135.3,108.2 1137.0,108.2 1138.6,108.2 1140.3,108.2 1141.9,108.2 1143.5,108.2 1145.2,108.2 1146.8,108.2 1148.5,108.2 1150.1,108.2 1151.8,108.2 1153.4,108.2 1155.1,108.2 1156.7,108.2 1158.4,108.2 1160.0,108.2"/>
  <line x1="82" y1="754" x2="1160" y2="754" stroke="#e5e7eb"/>
  <line x1="82" y1="780" x2="110" y2="780" stroke="#111827" stroke-opacity="0.52" stroke-width="2.4" stroke-dasharray="8 7"/>
  <text x="120" y="784" font-family="Arial, sans-serif" font-size="12" fill="#374151">best-so-far short-run screen</text>
  <circle cx="89" cy="810" r="5" fill="#374151" fill-opacity="0.75" stroke="#ffffff" stroke-width="0.5"/>
  <text x="102" y="814" font-family="Arial, sans-serif" font-size="12" fill="#374151">FSDP bootstrap</text>
  <circle cx="309" cy="810" r="5" fill="#a16207" fill-opacity="0.75" stroke="#ffffff" stroke-width="0.5"/>
  <text x="322" y="814" font-family="Arial, sans-serif" font-size="12" fill="#374151">Memory / dtype / AC</text>
  <circle cx="529" cy="810" r="5" fill="#f59e0b" fill-opacity="0.75" stroke="#ffffff" stroke-width="0.5"/>
  <text x="542" y="814" font-family="Arial, sans-serif" font-size="12" fill="#374151">Shape / batch / loss</text>
  <circle cx="749" cy="810" r="5" fill="#2563eb" fill-opacity="0.75" stroke="#ffffff" stroke-width="0.5"/>
  <text x="762" y="814" font-family="Arial, sans-serif" font-size="12" fill="#374151">Compile granularity</text>
  <circle cx="969" cy="810" r="5" fill="#9333ea" fill-opacity="0.75" stroke="#ffffff" stroke-width="0.5"/>
  <text x="982" y="814" font-family="Arial, sans-serif" font-size="12" fill="#374151">Quantization / MXFP8</text>
  <circle cx="89" cy="835" r="5" fill="#db2777" fill-opacity="0.75" stroke="#ffffff" stroke-width="0.5"/>
  <text x="102" y="839" font-family="Arial, sans-serif" font-size="12" fill="#374151">Custom kernels / fusion</text>
  <circle cx="309" cy="835" r="5" fill="#14b8a6" fill-opacity="0.75" stroke="#ffffff" stroke-width="0.5"/>
  <text x="322" y="839" font-family="Arial, sans-serif" font-size="12" fill="#374151">Attention backend</text>
  <circle cx="529" cy="835" r="5" fill="#16a34a" fill-opacity="0.75" stroke="#ffffff" stroke-width="0.5"/>
  <text x="542" y="839" font-family="Arial, sans-serif" font-size="12" fill="#374151">FSDP / NCCL comm</text>
  <circle cx="749" cy="835" r="5" fill="#64748b" fill-opacity="0.75" stroke="#ffffff" stroke-width="0.5"/>
  <text x="762" y="839" font-family="Arial, sans-serif" font-size="12" fill="#374151">Runtime / optimizer</text>
  <circle cx="969" cy="835" r="5" fill="#ef4444" fill-opacity="0.75" stroke="#ffffff" stroke-width="0.5"/>
  <text x="982" y="839" font-family="Arial, sans-serif" font-size="12" fill="#374151">Diagnostics / validation</text>
  <text x="82" y="875" font-family="Arial, sans-serif" font-size="11" fill="#6b7280">Categories are inferred from each run note/command; mixed experiments are assigned to their dominant tested idea.</text>
</svg>
